<mxfile host="app.diagrams.net" modified="2024-06-02T05:06:27.644Z" agent="Mozilla/5.0 (Macintosh; Intel Mac OS X 10_15_7) AppleWebKit/537.36 (KHTML, like Gecko) Chrome/125.0.0.0 Safari/537.36" etag="AyZvBAL1vakvuCKxSaiT" version="24.4.13" type="device">
  <diagram name="第 1 页" id="qcU9wVmDLxQgiWgDXT3w">
    <mxGraphModel dx="896" dy="594" grid="1" gridSize="10" guides="1" tooltips="1" connect="1" arrows="1" fold="1" page="1" pageScale="1" pageWidth="827" pageHeight="1169" math="0" shadow="0">
      <root>
        <mxCell id="0" />
        <mxCell id="1" parent="0" />
        <mxCell id="nwuS3yKaRCvEqXqRGb64-2" value="解锁开始" style="ellipse;whiteSpace=wrap;html=1;" parent="1" vertex="1">
          <mxGeometry x="60" y="140" width="100" height="60" as="geometry" />
        </mxCell>
        <mxCell id="nwuS3yKaRCvEqXqRGb64-3" style="edgeStyle=orthogonalEdgeStyle;rounded=0;orthogonalLoop=1;jettySize=auto;html=1;entryX=0;entryY=0.5;entryDx=0;entryDy=0;exitX=1;exitY=0.5;exitDx=0;exitDy=0;" parent="1" source="nwuS3yKaRCvEqXqRGb64-2" target="nwuS3yKaRCvEqXqRGb64-5" edge="1">
          <mxGeometry relative="1" as="geometry">
            <mxPoint x="200" y="170" as="sourcePoint" />
          </mxGeometry>
        </mxCell>
        <mxCell id="nwuS3yKaRCvEqXqRGb64-4" style="edgeStyle=orthogonalEdgeStyle;rounded=0;orthogonalLoop=1;jettySize=auto;html=1;entryX=0.5;entryY=0;entryDx=0;entryDy=0;" parent="1" source="nwuS3yKaRCvEqXqRGb64-5" target="nwuS3yKaRCvEqXqRGb64-9" edge="1">
          <mxGeometry relative="1" as="geometry" />
        </mxCell>
        <mxCell id="nwuS3yKaRCvEqXqRGb64-5" value="&lt;span style=&quot;font-family: 默认字体; background-color: rgb(248, 249, 250);&quot;&gt;&lt;font style=&quot;font-size: 12px;&quot;&gt;从队列和集合中移除过期协程&lt;/font&gt;&lt;/span&gt;" style="rounded=1;whiteSpace=wrap;html=1;" parent="1" vertex="1">
          <mxGeometry x="260" y="140" width="180" height="60" as="geometry" />
        </mxCell>
        <mxCell id="nwuS3yKaRCvEqXqRGb64-6" style="edgeStyle=orthogonalEdgeStyle;rounded=0;orthogonalLoop=1;jettySize=auto;html=1;entryX=0.5;entryY=0;entryDx=0;entryDy=0;" parent="1" source="nwuS3yKaRCvEqXqRGb64-9" target="nwuS3yKaRCvEqXqRGb64-11" edge="1">
          <mxGeometry relative="1" as="geometry" />
        </mxCell>
        <mxCell id="nwuS3yKaRCvEqXqRGb64-7" value="获取到了" style="edgeLabel;html=1;align=center;verticalAlign=middle;resizable=0;points=[];" parent="nwuS3yKaRCvEqXqRGb64-6" vertex="1" connectable="0">
          <mxGeometry x="-0.1822" y="-1" relative="1" as="geometry">
            <mxPoint as="offset" />
          </mxGeometry>
        </mxCell>
        <mxCell id="nwuS3yKaRCvEqXqRGb64-20" style="edgeStyle=orthogonalEdgeStyle;rounded=0;orthogonalLoop=1;jettySize=auto;html=1;entryX=0;entryY=0.5;entryDx=0;entryDy=0;" parent="1" source="nwuS3yKaRCvEqXqRGb64-9" target="nwuS3yKaRCvEqXqRGb64-19" edge="1">
          <mxGeometry relative="1" as="geometry">
            <Array as="points">
              <mxPoint x="610" y="290" />
              <mxPoint x="610" y="170" />
            </Array>
          </mxGeometry>
        </mxCell>
        <mxCell id="nwuS3yKaRCvEqXqRGb64-22" value="未获取到，说明没有过期协程" style="edgeLabel;html=1;align=center;verticalAlign=middle;resizable=0;points=[];" parent="nwuS3yKaRCvEqXqRGb64-20" vertex="1" connectable="0">
          <mxGeometry x="-0.5463" y="-2" relative="1" as="geometry">
            <mxPoint x="-4" y="-2" as="offset" />
          </mxGeometry>
        </mxCell>
        <mxCell id="nwuS3yKaRCvEqXqRGb64-9" value="获取队列头部协程" style="rhombus;whiteSpace=wrap;html=1;" parent="1" vertex="1">
          <mxGeometry x="280" y="250" width="140" height="80" as="geometry" />
        </mxCell>
        <mxCell id="nwuS3yKaRCvEqXqRGb64-10" style="edgeStyle=orthogonalEdgeStyle;rounded=0;orthogonalLoop=1;jettySize=auto;html=1;entryX=0.5;entryY=0;entryDx=0;entryDy=0;" parent="1" source="nwuS3yKaRCvEqXqRGb64-11" target="nwuS3yKaRCvEqXqRGb64-15" edge="1">
          <mxGeometry relative="1" as="geometry" />
        </mxCell>
        <mxCell id="nwuS3yKaRCvEqXqRGb64-11" value="在集合中查询此协程的分数&lt;div&gt;（即此协程的过期时间）&lt;/div&gt;" style="rounded=1;whiteSpace=wrap;html=1;" parent="1" vertex="1">
          <mxGeometry x="275" y="390" width="150" height="60" as="geometry" />
        </mxCell>
        <mxCell id="nwuS3yKaRCvEqXqRGb64-12" style="edgeStyle=orthogonalEdgeStyle;rounded=0;orthogonalLoop=1;jettySize=auto;html=1;" parent="1" source="nwuS3yKaRCvEqXqRGb64-15" target="nwuS3yKaRCvEqXqRGb64-18" edge="1">
          <mxGeometry relative="1" as="geometry" />
        </mxCell>
        <mxCell id="nwuS3yKaRCvEqXqRGb64-13" value="如果协程过期" style="edgeLabel;html=1;align=center;verticalAlign=middle;resizable=0;points=[];" parent="nwuS3yKaRCvEqXqRGb64-12" vertex="1" connectable="0">
          <mxGeometry y="4" relative="1" as="geometry">
            <mxPoint x="-4" as="offset" />
          </mxGeometry>
        </mxCell>
        <mxCell id="nwuS3yKaRCvEqXqRGb64-21" style="edgeStyle=orthogonalEdgeStyle;rounded=0;orthogonalLoop=1;jettySize=auto;html=1;entryX=0;entryY=0.5;entryDx=0;entryDy=0;" parent="1" source="nwuS3yKaRCvEqXqRGb64-15" target="nwuS3yKaRCvEqXqRGb64-19" edge="1">
          <mxGeometry relative="1" as="geometry">
            <Array as="points">
              <mxPoint x="610" y="520" />
              <mxPoint x="610" y="170" />
            </Array>
          </mxGeometry>
        </mxCell>
        <mxCell id="nwuS3yKaRCvEqXqRGb64-23" value="协程未过期，说明没有过期协程了" style="edgeLabel;html=1;align=center;verticalAlign=middle;resizable=0;points=[];" parent="nwuS3yKaRCvEqXqRGb64-21" vertex="1" connectable="0">
          <mxGeometry x="-0.6729" y="2" relative="1" as="geometry">
            <mxPoint x="-4" y="2" as="offset" />
          </mxGeometry>
        </mxCell>
        <mxCell id="nwuS3yKaRCvEqXqRGb64-15" value="此协程是否过期" style="rhombus;whiteSpace=wrap;html=1;" parent="1" vertex="1">
          <mxGeometry x="292.5" y="480" width="115" height="80" as="geometry" />
        </mxCell>
        <mxCell id="nwuS3yKaRCvEqXqRGb64-16" style="edgeStyle=orthogonalEdgeStyle;rounded=0;orthogonalLoop=1;jettySize=auto;html=1;entryX=0;entryY=0.5;entryDx=0;entryDy=0;" parent="1" source="nwuS3yKaRCvEqXqRGb64-18" target="nwuS3yKaRCvEqXqRGb64-9" edge="1">
          <mxGeometry relative="1" as="geometry">
            <Array as="points">
              <mxPoint x="350" y="750" />
              <mxPoint x="220" y="750" />
              <mxPoint x="220" y="290" />
            </Array>
          </mxGeometry>
        </mxCell>
        <mxCell id="nwuS3yKaRCvEqXqRGb64-17" value="继续移除其他过期协程" style="edgeLabel;html=1;align=center;verticalAlign=middle;resizable=0;points=[];" parent="nwuS3yKaRCvEqXqRGb64-16" vertex="1" connectable="0">
          <mxGeometry x="-0.9064" y="1" relative="1" as="geometry">
            <mxPoint x="-1" as="offset" />
          </mxGeometry>
        </mxCell>
        <mxCell id="nwuS3yKaRCvEqXqRGb64-18" value="从队列和集合中移除此协程" style="rounded=1;whiteSpace=wrap;html=1;" parent="1" vertex="1">
          <mxGeometry x="290" y="630" width="120" height="60" as="geometry" />
        </mxCell>
        <mxCell id="nwuS3yKaRCvEqXqRGb64-34" style="edgeStyle=orthogonalEdgeStyle;rounded=0;orthogonalLoop=1;jettySize=auto;html=1;entryX=0.5;entryY=0;entryDx=0;entryDy=0;" parent="1" source="nwuS3yKaRCvEqXqRGb64-19" target="nwuS3yKaRCvEqXqRGb64-24" edge="1">
          <mxGeometry relative="1" as="geometry" />
        </mxCell>
        <mxCell id="nwuS3yKaRCvEqXqRGb64-19" value="解锁流程" style="rounded=1;whiteSpace=wrap;html=1;" parent="1" vertex="1">
          <mxGeometry x="713" y="147.5" width="93" height="45" as="geometry" />
        </mxCell>
        <mxCell id="nwuS3yKaRCvEqXqRGb64-28" style="edgeStyle=orthogonalEdgeStyle;rounded=0;orthogonalLoop=1;jettySize=auto;html=1;entryX=0.5;entryY=0;entryDx=0;entryDy=0;" parent="1" source="nwuS3yKaRCvEqXqRGb64-24" target="nwuS3yKaRCvEqXqRGb64-25" edge="1">
          <mxGeometry relative="1" as="geometry" />
        </mxCell>
        <mxCell id="nwuS3yKaRCvEqXqRGb64-32" value="如果哈希不存在，&lt;div&gt;说明当前锁空闲，没有协程加锁&lt;/div&gt;" style="edgeLabel;html=1;align=center;verticalAlign=middle;resizable=0;points=[];" parent="nwuS3yKaRCvEqXqRGb64-28" vertex="1" connectable="0">
          <mxGeometry x="-0.2264" y="-2" relative="1" as="geometry">
            <mxPoint as="offset" />
          </mxGeometry>
        </mxCell>
        <mxCell id="nwuS3yKaRCvEqXqRGb64-35" style="edgeStyle=orthogonalEdgeStyle;rounded=0;orthogonalLoop=1;jettySize=auto;html=1;entryX=0;entryY=0.5;entryDx=0;entryDy=0;" parent="1" source="nwuS3yKaRCvEqXqRGb64-24" target="nwuS3yKaRCvEqXqRGb64-33" edge="1">
          <mxGeometry relative="1" as="geometry" />
        </mxCell>
        <mxCell id="nwuS3yKaRCvEqXqRGb64-36" value="如果哈希存在，&lt;div&gt;说明当前锁被占用，需要解锁&lt;/div&gt;" style="edgeLabel;html=1;align=center;verticalAlign=middle;resizable=0;points=[];" parent="nwuS3yKaRCvEqXqRGb64-35" vertex="1" connectable="0">
          <mxGeometry x="-0.5222" y="-2" relative="1" as="geometry">
            <mxPoint x="41" y="-2" as="offset" />
          </mxGeometry>
        </mxCell>
        <mxCell id="nwuS3yKaRCvEqXqRGb64-24" value="判断哈希&lt;div&gt;是否存在&lt;/div&gt;" style="rhombus;whiteSpace=wrap;html=1;" parent="1" vertex="1">
          <mxGeometry x="705" y="230" width="110" height="60" as="geometry" />
        </mxCell>
        <mxCell id="nwuS3yKaRCvEqXqRGb64-29" style="edgeStyle=orthogonalEdgeStyle;rounded=0;orthogonalLoop=1;jettySize=auto;html=1;entryX=0.5;entryY=0;entryDx=0;entryDy=0;" parent="1" source="nwuS3yKaRCvEqXqRGb64-25" target="nwuS3yKaRCvEqXqRGb64-26" edge="1">
          <mxGeometry relative="1" as="geometry" />
        </mxCell>
        <mxCell id="nwuS3yKaRCvEqXqRGb64-25" value="处理锁空闲的场景" style="rounded=1;whiteSpace=wrap;html=1;" parent="1" vertex="1">
          <mxGeometry x="702" y="380" width="115" height="40" as="geometry" />
        </mxCell>
        <mxCell id="nwuS3yKaRCvEqXqRGb64-30" style="edgeStyle=orthogonalEdgeStyle;rounded=0;orthogonalLoop=1;jettySize=auto;html=1;entryX=0.5;entryY=0;entryDx=0;entryDy=0;" parent="1" source="nwuS3yKaRCvEqXqRGb64-26" target="nwuS3yKaRCvEqXqRGb64-27" edge="1">
          <mxGeometry relative="1" as="geometry" />
        </mxCell>
        <mxCell id="nwuS3yKaRCvEqXqRGb64-26" value="通知队列中等待的协程，可以加锁了" style="rounded=1;whiteSpace=wrap;html=1;" parent="1" vertex="1">
          <mxGeometry x="692" y="450" width="135" height="40" as="geometry" />
        </mxCell>
        <mxCell id="nwuS3yKaRCvEqXqRGb64-27" value="不用解锁，返回" style="rounded=1;whiteSpace=wrap;html=1;" parent="1" vertex="1">
          <mxGeometry x="702.5" y="520" width="115" height="40" as="geometry" />
        </mxCell>
        <mxCell id="nwuS3yKaRCvEqXqRGb64-41" style="edgeStyle=orthogonalEdgeStyle;rounded=0;orthogonalLoop=1;jettySize=auto;html=1;entryX=0.5;entryY=0;entryDx=0;entryDy=0;" parent="1" source="nwuS3yKaRCvEqXqRGb64-33" target="nwuS3yKaRCvEqXqRGb64-37" edge="1">
          <mxGeometry relative="1" as="geometry" />
        </mxCell>
        <mxCell id="nwuS3yKaRCvEqXqRGb64-33" value="处理锁被占用的场景" style="rounded=1;whiteSpace=wrap;html=1;" parent="1" vertex="1">
          <mxGeometry x="1000" y="240" width="120" height="40" as="geometry" />
        </mxCell>
        <mxCell id="nwuS3yKaRCvEqXqRGb64-39" style="edgeStyle=orthogonalEdgeStyle;rounded=0;orthogonalLoop=1;jettySize=auto;html=1;entryX=0.5;entryY=0;entryDx=0;entryDy=0;" parent="1" source="nwuS3yKaRCvEqXqRGb64-37" target="nwuS3yKaRCvEqXqRGb64-38" edge="1">
          <mxGeometry relative="1" as="geometry" />
        </mxCell>
        <mxCell id="nwuS3yKaRCvEqXqRGb64-40" value="如果哈希中不存在当前协程。说明：&lt;div&gt;1. 当前协程未加锁&lt;/div&gt;&lt;div&gt;2. 当前协程已经解锁，但重复请求解锁&lt;/div&gt;" style="edgeLabel;html=1;align=center;verticalAlign=middle;resizable=0;points=[];" parent="nwuS3yKaRCvEqXqRGb64-39" vertex="1" connectable="0">
          <mxGeometry x="-0.3886" y="-2" relative="1" as="geometry">
            <mxPoint x="2" y="12" as="offset" />
          </mxGeometry>
        </mxCell>
        <mxCell id="nwuS3yKaRCvEqXqRGb64-43" style="edgeStyle=orthogonalEdgeStyle;rounded=0;orthogonalLoop=1;jettySize=auto;html=1;entryX=0;entryY=0.5;entryDx=0;entryDy=0;" parent="1" source="nwuS3yKaRCvEqXqRGb64-37" target="nwuS3yKaRCvEqXqRGb64-42" edge="1">
          <mxGeometry relative="1" as="geometry" />
        </mxCell>
        <mxCell id="nwuS3yKaRCvEqXqRGb64-44" value="如果哈希存在当前协程，&lt;div&gt;说明当前协程加锁了，需要解锁&lt;/div&gt;" style="edgeLabel;html=1;align=center;verticalAlign=middle;resizable=0;points=[];" parent="nwuS3yKaRCvEqXqRGb64-43" vertex="1" connectable="0">
          <mxGeometry x="-0.295" y="-2" relative="1" as="geometry">
            <mxPoint x="24" y="-2" as="offset" />
          </mxGeometry>
        </mxCell>
        <mxCell id="nwuS3yKaRCvEqXqRGb64-37" value="判断哈希中是否存在&lt;div&gt;当前协程&lt;/div&gt;" style="rhombus;whiteSpace=wrap;html=1;" parent="1" vertex="1">
          <mxGeometry x="990" y="320" width="140" height="70" as="geometry" />
        </mxCell>
        <mxCell id="nwuS3yKaRCvEqXqRGb64-38" value="非法行为，直接返回" style="rounded=1;whiteSpace=wrap;html=1;" parent="1" vertex="1">
          <mxGeometry x="1000" y="480" width="120" height="40" as="geometry" />
        </mxCell>
        <mxCell id="nwuS3yKaRCvEqXqRGb64-52" style="edgeStyle=orthogonalEdgeStyle;rounded=0;orthogonalLoop=1;jettySize=auto;html=1;entryX=0.5;entryY=0;entryDx=0;entryDy=0;" parent="1" source="nwuS3yKaRCvEqXqRGb64-42" target="nwuS3yKaRCvEqXqRGb64-45" edge="1">
          <mxGeometry relative="1" as="geometry" />
        </mxCell>
        <mxCell id="nwuS3yKaRCvEqXqRGb64-42" value="处理锁被当前协程占用的场景" style="rounded=1;whiteSpace=wrap;html=1;" parent="1" vertex="1">
          <mxGeometry x="1340" y="330" width="180" height="50" as="geometry" />
        </mxCell>
        <mxCell id="nwuS3yKaRCvEqXqRGb64-53" style="edgeStyle=orthogonalEdgeStyle;rounded=0;orthogonalLoop=1;jettySize=auto;html=1;entryX=0.5;entryY=0;entryDx=0;entryDy=0;" parent="1" source="nwuS3yKaRCvEqXqRGb64-45" target="nwuS3yKaRCvEqXqRGb64-46" edge="1">
          <mxGeometry relative="1" as="geometry" />
        </mxCell>
        <mxCell id="nwuS3yKaRCvEqXqRGb64-45" value="哈希中当前协程的值减一&lt;div&gt;（实现可重入锁）&lt;/div&gt;" style="rounded=1;whiteSpace=wrap;html=1;" parent="1" vertex="1">
          <mxGeometry x="1360" y="420" width="140" height="50" as="geometry" />
        </mxCell>
        <mxCell id="nwuS3yKaRCvEqXqRGb64-54" style="edgeStyle=orthogonalEdgeStyle;rounded=0;orthogonalLoop=1;jettySize=auto;html=1;entryX=0.5;entryY=0;entryDx=0;entryDy=0;" parent="1" source="nwuS3yKaRCvEqXqRGb64-46" target="nwuS3yKaRCvEqXqRGb64-62" edge="1">
          <mxGeometry relative="1" as="geometry" />
        </mxCell>
        <mxCell id="nwuS3yKaRCvEqXqRGb64-59" value="如果大于0，&lt;div&gt;说明此可重入锁不能释放，&lt;/div&gt;&lt;div&gt;还需要继续持有&lt;/div&gt;" style="edgeLabel;html=1;align=center;verticalAlign=middle;resizable=0;points=[];" parent="nwuS3yKaRCvEqXqRGb64-54" vertex="1" connectable="0">
          <mxGeometry x="-0.255" y="2" relative="1" as="geometry">
            <mxPoint x="-2" y="5" as="offset" />
          </mxGeometry>
        </mxCell>
        <mxCell id="nwuS3yKaRCvEqXqRGb64-56" style="edgeStyle=orthogonalEdgeStyle;rounded=0;orthogonalLoop=1;jettySize=auto;html=1;entryX=0;entryY=0.5;entryDx=0;entryDy=0;" parent="1" source="nwuS3yKaRCvEqXqRGb64-46" target="nwuS3yKaRCvEqXqRGb64-64" edge="1">
          <mxGeometry relative="1" as="geometry" />
        </mxCell>
        <mxCell id="nwuS3yKaRCvEqXqRGb64-60" value="如果等于0，&lt;div&gt;说明此可重入锁可以释放了&lt;/div&gt;" style="edgeLabel;html=1;align=center;verticalAlign=middle;resizable=0;points=[];" parent="nwuS3yKaRCvEqXqRGb64-56" vertex="1" connectable="0">
          <mxGeometry x="-0.2151" y="-1" relative="1" as="geometry">
            <mxPoint x="11" y="-1" as="offset" />
          </mxGeometry>
        </mxCell>
        <mxCell id="nwuS3yKaRCvEqXqRGb64-46" value="判断哈希中&lt;div&gt;当前协程的值&lt;/div&gt;&lt;div&gt;是否大于0&lt;/div&gt;" style="rhombus;whiteSpace=wrap;html=1;" parent="1" vertex="1">
          <mxGeometry x="1377.5" y="520" width="105" height="80" as="geometry" />
        </mxCell>
        <mxCell id="nwuS3yKaRCvEqXqRGb64-55" style="edgeStyle=orthogonalEdgeStyle;rounded=0;orthogonalLoop=1;jettySize=auto;html=1;entryX=0.5;entryY=0;entryDx=0;entryDy=0;" parent="1" source="nwuS3yKaRCvEqXqRGb64-47" target="nwuS3yKaRCvEqXqRGb64-48" edge="1">
          <mxGeometry relative="1" as="geometry" />
        </mxCell>
        <mxCell id="nwuS3yKaRCvEqXqRGb64-47" value="重置哈希的过期时间" style="rounded=1;whiteSpace=wrap;html=1;" parent="1" vertex="1">
          <mxGeometry x="1370" y="750" width="120" height="40" as="geometry" />
        </mxCell>
        <mxCell id="nwuS3yKaRCvEqXqRGb64-48" value="解锁成功，返回" style="rounded=1;whiteSpace=wrap;html=1;" parent="1" vertex="1">
          <mxGeometry x="1375" y="820" width="110" height="30" as="geometry" />
        </mxCell>
        <mxCell id="nwuS3yKaRCvEqXqRGb64-57" style="edgeStyle=orthogonalEdgeStyle;rounded=0;orthogonalLoop=1;jettySize=auto;html=1;" parent="1" source="nwuS3yKaRCvEqXqRGb64-49" target="nwuS3yKaRCvEqXqRGb64-50" edge="1">
          <mxGeometry relative="1" as="geometry" />
        </mxCell>
        <mxCell id="nwuS3yKaRCvEqXqRGb64-49" value="删除哈希" style="rounded=1;whiteSpace=wrap;html=1;" parent="1" vertex="1">
          <mxGeometry x="1672.5" y="620" width="85" height="30" as="geometry" />
        </mxCell>
        <mxCell id="nwuS3yKaRCvEqXqRGb64-58" style="edgeStyle=orthogonalEdgeStyle;rounded=0;orthogonalLoop=1;jettySize=auto;html=1;" parent="1" source="nwuS3yKaRCvEqXqRGb64-50" target="nwuS3yKaRCvEqXqRGb64-51" edge="1">
          <mxGeometry relative="1" as="geometry" />
        </mxCell>
        <mxCell id="nwuS3yKaRCvEqXqRGb64-50" value="通知队列头部协程，可以加锁" style="rounded=1;whiteSpace=wrap;html=1;" parent="1" vertex="1">
          <mxGeometry x="1657.5" y="680" width="115" height="40" as="geometry" />
        </mxCell>
        <mxCell id="nwuS3yKaRCvEqXqRGb64-51" value="解锁成功，返回" style="rounded=1;whiteSpace=wrap;html=1;" parent="1" vertex="1">
          <mxGeometry x="1661.25" y="755" width="107.5" height="35" as="geometry" />
        </mxCell>
        <mxCell id="nwuS3yKaRCvEqXqRGb64-63" style="edgeStyle=orthogonalEdgeStyle;rounded=0;orthogonalLoop=1;jettySize=auto;html=1;entryX=0.5;entryY=0;entryDx=0;entryDy=0;" parent="1" source="nwuS3yKaRCvEqXqRGb64-62" target="nwuS3yKaRCvEqXqRGb64-47" edge="1">
          <mxGeometry relative="1" as="geometry" />
        </mxCell>
        <mxCell id="nwuS3yKaRCvEqXqRGb64-62" value="处理可重入锁&lt;div&gt;还需持有的场景&lt;/div&gt;" style="rounded=1;whiteSpace=wrap;html=1;" parent="1" vertex="1">
          <mxGeometry x="1375" y="680" width="110" height="40" as="geometry" />
        </mxCell>
        <mxCell id="nwuS3yKaRCvEqXqRGb64-65" style="edgeStyle=orthogonalEdgeStyle;rounded=0;orthogonalLoop=1;jettySize=auto;html=1;entryX=0.5;entryY=0;entryDx=0;entryDy=0;" parent="1" source="nwuS3yKaRCvEqXqRGb64-64" target="nwuS3yKaRCvEqXqRGb64-49" edge="1">
          <mxGeometry relative="1" as="geometry" />
        </mxCell>
        <mxCell id="nwuS3yKaRCvEqXqRGb64-64" value="处理可重入锁&lt;div&gt;可以释放的场景&lt;/div&gt;" style="rounded=1;whiteSpace=wrap;html=1;" parent="1" vertex="1">
          <mxGeometry x="1660" y="540" width="110" height="40" as="geometry" />
        </mxCell>
      </root>
    </mxGraphModel>
  </diagram>
</mxfile>
